<svg viewBox="-95 0 512 512.001" xmlns="http://www.w3.org/2000/svg"><path d="m52.097656 363.210938s36.890625 48.421874 11.503906 116.753906c-4.417968 11.890625 4.429688 24.535156 17.113282 24.535156h186.84375l-8.230469-141.289062zm0 0" fill="#b86eff"/><path d="m264.414062 450.488281-5.085937-87.277343h-207.230469s26.585938 34.914062 19.074219 87.277343zm0 0" fill="#9f4dff"/><path d="m231.34375 363.210938s45.941406 60.304687 0 141.289062h63.957031c10.375 0 18.769531-8.433594 18.722657-18.808594v-201.417968zm0 0" fill="#cf92ff"/><path d="m250.425781 450.488281h63.597657v-166.214843l-82.679688 78.9375s26.59375 34.914062 19.082031 87.277343zm0 0" fill="#b86eff"/><path d="m134.863281 7.5h153.929688c14.386719 0 26.023437 11.714844 25.929687 26.101562l-.695312 361.214844h-89.625zm0 0" fill="#ff71da"/><path d="m49.089844 281.300781-38.6875 54.652344 214-4.351563 34.925781-50.300781zm0 0" fill="#ffc0e9"/><path d="m224.402344 70.71875-214-4.441406 38.6875 52.417968h210.238281zm0 0" fill="#ffc0e9"/><path d="m224.402344 70.71875h-204.480469c-6.859375 0-12.421875-5.5625-12.421875-12.421875v-38.375c0-6.859375 5.5625-12.421875 12.421875-12.421875h204.480469zm0 0" fill="#ffeb99"/><path d="m224.402344 394.816406h-204.480469c-6.859375 0-12.421875-5.558594-12.421875-12.417968v-38.378907c0-6.859375 5.5625-12.417969 12.421875-12.417969h204.480469zm0 0" fill="#ffeb99"/><path d="m49.089844 118.695312h210.238281v162.605469h-210.238281zm0 0" fill="#ff94de"/><path d="m216.597656 251.890625h-124.777344c-8.144531 0-14.746093-6.605469-14.746093-14.75v-74.285156c0-8.144531 6.601562-14.75 14.746093-14.75h124.777344c8.144532 0 14.746094 6.605469 14.746094 14.75v74.285156c0 8.144531-6.601562 14.75-14.746094 14.75zm0 0" fill="#9ff6ff"/><path d="m216.597656 148.105469h-34.902344c8.144532 0 14.746094 6.605469 14.746094 14.75v74.285156c0 8.144531-6.601562 14.75-14.746094 14.75h34.902344c8.144532 0 14.746094-6.605469 14.746094-14.75v-74.285156c0-8.144531-6.601562-14.75-14.746094-14.75zm0 0" fill="#7de7ff"/><path d="m94.949219 275.492188c0 8.28125-6.714844 15-15 15-8.285157 0-15-6.71875-15-15 0-8.285157 6.714843-15 15-15 8.285156 0 15 6.714843 15 15zm0 0" fill="#b86eff"/><path d="m208.074219 304.386719c0 4.140625-3.359375 7.5-7.5 7.5-4.144531 0-7.5-3.359375-7.5-7.5 0-4.144531 3.355469-7.5 7.5-7.5 4.140625 0 7.5 3.355469 7.5 7.5zm0 0"/><path d="m174.828125 304.386719c0 4.140625-3.359375 7.5-7.5 7.5s-7.5-3.359375-7.5-7.5c0-4.144531 3.359375-7.5 7.5-7.5s7.5 3.355469 7.5 7.5zm0 0"/><path d="m141.582031 304.386719c0 4.140625-3.355469 7.5-7.5 7.5-4.140625 0-7.5-3.359375-7.5-7.5 0-4.144531 3.359375-7.5 7.5-7.5 4.144531 0 7.5 3.355469 7.5 7.5zm0 0"/><path d="m111.976562 179.191406h11.496094c4.140625 0 7.5-3.359375 7.5-7.5 0-4.144531-3.359375-7.5-7.5-7.5h-11.496094c-4.144531 0-7.5 3.355469-7.5 7.5 0 4.140625 3.355469 7.5 7.5 7.5zm0 0"/><path d="m148.460938 179.191406h11.496093c4.140625 0 7.5-3.359375 7.5-7.5 0-4.144531-3.359375-7.5-7.5-7.5h-11.496093c-4.140626 0-7.5 3.355469-7.5 7.5 0 4.140625 3.359374 7.5 7.5 7.5zm0 0"/><path d="m184.945312 179.191406h11.496094c4.144532 0 7.5-3.359375 7.5-7.5 0-4.144531-3.355468-7.5-7.5-7.5h-11.496094c-4.140624 0-7.5 3.355469-7.5 7.5 0 4.140625 3.359376 7.5 7.5 7.5zm0 0"/><path d="m149.214844 194.90625c0-4.140625-3.355469-7.5-7.5-7.5h-11.496094c-4.144531 0-7.5 3.359375-7.5 7.5 0 4.144531 3.355469 7.5 7.5 7.5h11.496094c4.140625 0 7.5-3.355469 7.5-7.5zm0 0"/><path d="m178.199219 187.40625h-11.496094c-4.144531 0-7.5 3.359375-7.5 7.5 0 4.144531 3.355469 7.5 7.5 7.5h11.496094c4.144531 0 7.5-3.355469 7.5-7.5 0-4.140625-3.355469-7.5-7.5-7.5zm0 0"/><path d="m159.957031 220.804688h-11.496093c-4.140626 0-7.5 3.355468-7.5 7.5 0 4.144531 3.359374 7.5 7.5 7.5h11.496093c4.140625 0 7.5-3.355469 7.5-7.5 0-4.144532-3.359375-7.5-7.5-7.5zm0 0"/><path d="m322.222656 33.648438c.058594-8.96875-3.390625-17.414063-9.714844-23.777344-6.324218-6.367188-14.746093-9.871094-23.714843-9.871094h-268.871094c-10.984375 0-19.921875 8.9375-19.921875 19.921875v38.375c0 4.699219 1.644531 9.015625 4.378906 12.425781l-.011718.007813 37.222656 50.429687v157.757813l-37.308594 52.703125.046875.03125c-2.785156 3.511718-4.328125 7.871094-4.328125 12.371094v38.375c0 10.984374 8.9375 19.921874 19.921875 19.921874h41.402344c4.566406 18.109376 6.632812 44.386719-4.753907 75.03125-2.921874 7.871094-1.804687 16.6875 2.996094 23.589844 4.8125 6.925782 12.71875 11.058594 21.148438 11.058594h214.585937c7.027344 0 13.628907-2.742188 18.585938-7.722656 4.957031-4.976563 7.667969-11.589844 7.636719-18.585938l.003906-90.855468zm-20.355468-13.207032c3.484374 3.507813 5.386718 8.164063 5.355468 13.144532l-.683594 353.730468h-60.175781c-.023437 0-.046875 0-.070312 0h-14.390625v-53.371094l33.585937-48.367187c.886719-1.28125 1.320313-2.773437 1.320313-4.277344h.019531v-162.609375h-.019531c0-1.554687-.46875-3.105468-1.417969-4.414062l-33.488281-46v-53.277344h56.890625c4.945312 0 9.589843 1.933594 13.074219 5.441406zm-199.488282 253.359375c-.421875-5.632812-2.921875-10.691406-6.738281-14.410156h120.957031c12.265625 0 22.246094-9.980469 22.246094-22.25v-74.285156c0-12.269531-9.980469-22.25-22.246094-22.25h-124.777344c-12.265624 0-22.246093 9.980469-22.246093 22.25v74.285156c0 6.335937 2.667969 12.058594 6.929687 16.113281-10.230468 1.578125-18.203125 10.078125-18.984375 20.546875h-.929687v-147.609375h195.234375v147.609375zm-22.429687 9.191407c-4.136719 0-7.5-3.363282-7.5-7.5 0-4.136719 3.363281-7.5 7.5-7.5s7.5 3.363281 7.5 7.5c0 4.136718-3.363281 7.5-7.5 7.5zm4.625-45.851563v-74.285156c0-3.996094 3.25-7.25 7.246093-7.25h124.777344c3.996094 0 7.246094 3.253906 7.246094 7.25v74.285156c0 3.996094-3.25 7.25-7.246094 7.25h-124.777344c-3.996093 0-7.246093-3.253906-7.246093-7.25zm-69.574219-217.21875c0-2.714844 2.207031-4.921875 4.921875-4.921875h196.980469v48.21875h-35.207032c-4.144531 0-7.5 3.355469-7.5 7.5 0 4.140625 3.355469 7.5 7.5 7.5h38.886719l24.007813 32.976562h-191.710938l-24.339844-32.976562h123.765626c4.144531 0 7.5-3.359375 7.5-7.5 0-4.144531-3.355469-7.5-7.5-7.5h-132.382813c-2.714844 0-4.921875-2.207031-4.921875-4.921875zm0 362.476563v-38.378907c0-1.492187.632812-2.550781 1.164062-3.179687.347657-.410156 36.808594-52.039063 36.808594-52.039063h8.851563c2.648437 3.597657 6.339843 6.378907 10.625 7.898438v11.925781c0 4.144531 3.355469 7.5 7.5 7.5s7.5-3.355469 7.5-7.5v-11.925781c4.285156-1.519531 7.976562-4.300781 10.625-7.898438h146.914062l-24.511719 35.300781h-170.425781c-4.140625 0-7.5 3.355469-7.5 7.5 0 4.140626 3.359375 7.5 7.5 7.5h166.851563v48.214844h-196.980469c-2.714844 0-4.921875-2.207031-4.921875-4.917968zm288.253906 111.296874c-2.121094 2.128907-4.945312 3.304688-7.953125 3.304688h-214.585937c-3.570313 0-6.792969-1.683594-8.832032-4.621094-2.027343-2.914062-2.480468-6.484375-1.25-9.800781 11.949219-32.171875 10.585938-60.136719 6.109376-80.261719h163.828124c5.792969 22.714844 4.835938 46.132813-2.886718 69.699219-1.292969 3.9375.773437 8.445313 4.789062 9.460937 5.058594 1.285157 8.429688-1.628906 9.464844-4.789062 8.085938-24.679688 9.441406-50.183594 4.046875-74.371094h50.542969v83.410156c.011718 3.007813-1.148438 5.835938-3.273438 7.96875zm0 0"/></svg>